<mxfile host="app.diagrams.net" agent="Mozilla/5.0 (Windows NT 10.0; Win64; x64) AppleWebKit/537.36 (KHTML, like Gecko) Chrome/131.0.0.0 Safari/537.36" version="24.8.9">
  <diagram name="Page-1" id="U8e6MwPziij_D51gOi3C">
    <mxGraphModel dx="600" dy="318" grid="1" gridSize="10" guides="1" tooltips="1" connect="1" arrows="1" fold="1" page="1" pageScale="1" pageWidth="850" pageHeight="1100" math="0" shadow="0">
      <root>
        <mxCell id="0" />
        <mxCell id="1" parent="0" />
        <mxCell id="Jcyob_S7jBje0LWIOMKp-3" value="" style="edgeStyle=orthogonalEdgeStyle;rounded=0;orthogonalLoop=1;jettySize=auto;html=1;" edge="1" parent="1" source="Jcyob_S7jBje0LWIOMKp-1" target="Jcyob_S7jBje0LWIOMKp-2">
          <mxGeometry relative="1" as="geometry">
            <Array as="points">
              <mxPoint x="310" y="370" />
              <mxPoint x="310" y="380" />
            </Array>
          </mxGeometry>
        </mxCell>
        <mxCell id="Jcyob_S7jBje0LWIOMKp-1" value="&lt;h2&gt;Team&lt;/h2&gt;" style="rounded=0;whiteSpace=wrap;html=1;" vertex="1" parent="1">
          <mxGeometry x="360" y="350" width="100" height="30" as="geometry" />
        </mxCell>
        <mxCell id="Jcyob_S7jBje0LWIOMKp-2" value="&lt;u&gt;Name&lt;/u&gt;" style="ellipse;whiteSpace=wrap;html=1;rounded=0;" vertex="1" parent="1">
          <mxGeometry x="180" y="370" width="80" height="20" as="geometry" />
        </mxCell>
        <mxCell id="Jcyob_S7jBje0LWIOMKp-4" value="City" style="ellipse;whiteSpace=wrap;html=1;rounded=0;" vertex="1" parent="1">
          <mxGeometry x="220" y="320" width="80" height="20" as="geometry" />
        </mxCell>
        <mxCell id="Jcyob_S7jBje0LWIOMKp-6" value="" style="edgeStyle=none;orthogonalLoop=1;jettySize=auto;html=1;rounded=0;entryX=1;entryY=1;entryDx=0;entryDy=0;" edge="1" parent="1" source="Jcyob_S7jBje0LWIOMKp-1" target="Jcyob_S7jBje0LWIOMKp-4">
          <mxGeometry width="100" relative="1" as="geometry">
            <mxPoint x="310" y="340" as="sourcePoint" />
            <mxPoint x="410" y="340" as="targetPoint" />
            <Array as="points" />
          </mxGeometry>
        </mxCell>
        <mxCell id="Jcyob_S7jBje0LWIOMKp-7" value="Coach" style="ellipse;whiteSpace=wrap;html=1;rounded=0;" vertex="1" parent="1">
          <mxGeometry x="320" y="310" width="80" height="20" as="geometry" />
        </mxCell>
        <mxCell id="Jcyob_S7jBje0LWIOMKp-8" value="" style="edgeStyle=none;orthogonalLoop=1;jettySize=auto;html=1;rounded=0;entryX=0.5;entryY=1;entryDx=0;entryDy=0;exitX=0.113;exitY=0.001;exitDx=0;exitDy=0;exitPerimeter=0;" edge="1" parent="1" source="Jcyob_S7jBje0LWIOMKp-1" target="Jcyob_S7jBje0LWIOMKp-7">
          <mxGeometry width="100" relative="1" as="geometry">
            <mxPoint x="400" y="320" as="sourcePoint" />
            <mxPoint x="500" y="320" as="targetPoint" />
            <Array as="points" />
          </mxGeometry>
        </mxCell>
        <mxCell id="Jcyob_S7jBje0LWIOMKp-10" value="Caption" style="ellipse;whiteSpace=wrap;html=1;" vertex="1" parent="1">
          <mxGeometry x="420" y="310" width="80" height="20" as="geometry" />
        </mxCell>
        <mxCell id="Jcyob_S7jBje0LWIOMKp-11" value="" style="edgeStyle=none;orthogonalLoop=1;jettySize=auto;html=1;rounded=0;entryX=0.564;entryY=0.977;entryDx=0;entryDy=0;entryPerimeter=0;" edge="1" parent="1" source="Jcyob_S7jBje0LWIOMKp-1" target="Jcyob_S7jBje0LWIOMKp-10">
          <mxGeometry width="100" relative="1" as="geometry">
            <mxPoint x="490" y="370" as="sourcePoint" />
            <mxPoint x="590" y="370" as="targetPoint" />
            <Array as="points" />
          </mxGeometry>
        </mxCell>
        <mxCell id="Jcyob_S7jBje0LWIOMKp-12" value="Set Of Players" style="ellipse;whiteSpace=wrap;html=1;" vertex="1" parent="1">
          <mxGeometry x="490" y="360" width="120" height="20" as="geometry" />
        </mxCell>
        <mxCell id="Jcyob_S7jBje0LWIOMKp-13" value="" style="edgeStyle=none;orthogonalLoop=1;jettySize=auto;html=1;rounded=0;entryX=0;entryY=0.5;entryDx=0;entryDy=0;" edge="1" parent="1" source="Jcyob_S7jBje0LWIOMKp-1" target="Jcyob_S7jBje0LWIOMKp-12">
          <mxGeometry width="100" relative="1" as="geometry">
            <mxPoint x="440" y="440" as="sourcePoint" />
            <mxPoint x="540" y="440" as="targetPoint" />
            <Array as="points" />
          </mxGeometry>
        </mxCell>
      </root>
    </mxGraphModel>
  </diagram>
</mxfile>
